<svg width="48" height="48" viewBox="0 0 48 48" fill="none" xmlns="http://www.w3.org/2000/svg">
<path fill-rule="evenodd" clip-rule="evenodd" d="M24 0C10.742 0 0 10.7498 0 23.9956C0 36.5868 9.71393 46.9217 22.0532 47.9134V48H24C37.258 48 48 37.2502 48 24.0043C48 10.7595 37.2589 0 24 0ZM29.3032 43.4004C27.7975 43.8111 26.2214 44.0511 24.5969 44.0985H24C21.2911 44.0985 18.7068 43.5619 16.3475 42.5894C18.6318 34.3589 24.8241 28.4635 31.9119 25.8292C33.135 31.7571 32.2471 38.1095 29.3032 43.4004ZM30.8327 22.0801C22.7432 24.9937 15.6783 31.5568 12.8395 40.7165C7.44677 37.1096 3.8935 30.9649 3.8935 23.9956C3.8935 21.5243 4.33988 19.1566 5.15651 16.969C7.59064 18.1819 10.1934 19.0398 12.8701 19.5169C16.2797 20.142 19.7731 20.1212 23.1729 19.5082C25.108 19.1589 26.9973 18.6024 28.8087 17.8609C29.615 19.2013 30.2932 20.6137 30.8327 22.0801ZM35.6646 24.7577C36.8336 30.1535 36.4791 35.8715 34.6135 41.0808C40.1485 37.6339 43.8853 31.5722 44.097 24.6278C41.3455 24.129 38.4775 24.1899 35.6646 24.7577ZM43.8265 20.6423C40.7794 20.2144 37.6459 20.3535 34.585 21.0073C33.9821 19.3161 33.2212 17.6868 32.3146 16.1398C34.8294 14.6874 37.126 12.8594 39.1002 10.7278C41.5146 13.4731 43.1929 16.8813 43.8265 20.6423ZM13.558 15.6853C11.2327 15.2713 8.97419 14.525 6.86653 13.4717C8.67923 10.5282 11.2295 8.08678 14.2599 6.40543L14.2833 6.41277L14.2842 6.41305L14.2843 6.41308L14.2843 6.41309C14.6145 6.517 14.9297 6.61619 15.2332 6.72512C15.3451 6.76789 15.4548 6.80946 15.562 6.85009L15.5636 6.85073L15.5637 6.85076L15.5638 6.85078C16.0559 7.03739 16.4954 7.20402 16.8625 7.37422L16.9673 7.42659L16.9923 7.4382C17.2241 7.54602 17.5582 7.70525 17.8592 7.8488C18.0192 7.92515 18.1699 7.997 18.2911 8.0543L18.2956 8.05677C18.3968 8.11115 18.4819 8.15682 18.5611 8.20407C18.6256 8.24592 18.6832 8.27982 18.7141 8.2979C18.7706 8.33097 18.8287 8.36367 18.8765 8.3903C18.9174 8.41302 18.9575 8.43515 18.9876 8.45165L19.0027 8.45997L19.0348 8.47767L19.0388 8.48C19.0834 8.50572 19.1376 8.53662 19.1993 8.57187C19.3317 8.6474 19.499 8.74287 19.6828 8.85042C19.8123 8.92632 19.9335 8.9987 20.0323 9.05997C20.1058 9.10562 20.1458 9.1321 20.161 9.14218L20.1619 9.14277C20.1681 9.14693 20.1695 9.14789 20.167 9.14597L20.2524 9.21065L20.3472 9.26697C20.4918 9.35278 20.6343 9.45138 20.8121 9.5744L20.8121 9.57443L20.8122 9.57448L20.8129 9.575C20.8941 9.63117 20.9827 9.69245 21.0821 9.75995L21.1497 9.80577L21.2071 9.83817C21.2071 9.83827 21.2098 9.84008 21.2155 9.84394C21.2309 9.85435 21.2684 9.87963 21.3338 9.92645C21.4344 9.99845 21.5558 10.0888 21.6895 10.1893L21.8477 10.3086C21.9291 10.37 22.0116 10.4322 22.0818 10.4847C22.1745 10.5541 22.2879 10.6383 22.3903 10.7093C23.8842 11.8519 25.2498 13.1565 26.4656 14.5946C25.1721 15.0679 23.8389 15.4322 22.4815 15.6773C19.5224 16.2108 16.5 16.2252 13.5682 15.6872L13.5631 15.6862L13.558 15.6853ZM24 3.89279C28.615 3.89279 32.8666 5.44933 36.2598 8.06515C34.4807 9.9899 32.3974 11.6291 30.1163 12.9119C28.548 10.9185 26.7335 9.12384 24.7106 7.58285L24.6617 7.54565L24.611 7.51182L24.5972 7.50222C24.5864 7.49459 24.572 7.4843 24.5536 7.47089C24.5162 7.44375 24.4699 7.4095 24.4144 7.36793C24.3515 7.32084 24.2883 7.27319 24.2205 7.22201L24.2204 7.22191L24.2065 7.21141C24.1515 7.16988 24.0933 7.12595 24.0295 7.07806C23.8917 6.9744 23.7405 6.86165 23.6016 6.76213C23.5045 6.69257 23.365 6.59418 23.2225 6.50742L23.1322 6.4449L23.1317 6.44455L23.1316 6.44453C22.9463 6.31616 22.6683 6.12359 22.4153 5.96826C22.179 5.8026 21.8596 5.61387 21.6504 5.49134C21.4478 5.37271 21.2296 5.2482 21.0942 5.1709L21.0931 5.1703L20.9905 5.11163C20.9651 5.09678 20.9431 5.08451 20.9344 5.0797L20.9332 5.07903L20.8807 5.04995L20.8629 5.04015C20.8327 5.02352 20.8024 5.00688 20.771 4.98938C20.735 4.96936 20.7059 4.95284 20.6847 4.94048L20.6701 4.93025L20.6184 4.89868C20.4314 4.78443 20.2366 4.68009 20.1308 4.62345L20.1286 4.62224L20.0917 4.6025L20.0465 4.57816L20.0001 4.55623C19.9072 4.51237 19.7698 4.44695 19.6139 4.37263C21.0257 4.05849 22.4935 3.89279 24 3.89279Z" fill="black"/>
</svg>
