<svg width="38" height="40" viewBox="0 0 38 40" fill="none" xmlns="http://www.w3.org/2000/svg">
<rect x="0.5" y="1.5" width="37" height="37" rx="4.5" fill="url(#paint0_linear_1351_45)" stroke="url(#paint1_linear_1351_45)"/>
<path d="M18.494 31.279C16.882 31.279 15.4767 30.9897 14.278 30.411C13.0793 29.8117 12.139 28.9747 11.457 27.9C10.7957 26.8253 10.465 25.575 10.465 24.149L14.278 23.932C14.278 25.048 14.6707 25.9367 15.456 26.598C16.262 27.2593 17.3263 27.59 18.649 27.59C19.4963 27.59 20.2197 27.466 20.819 27.218C21.4183 26.9493 21.8833 26.5773 22.214 26.102C22.5447 25.606 22.71 25.0273 22.71 24.366C22.71 23.7873 22.586 23.3017 22.338 22.909C22.1107 22.4957 21.7593 22.165 21.284 21.917C20.8293 21.669 20.2713 21.4933 19.61 21.39C18.9693 21.266 18.2357 21.204 17.409 21.204V18.197C18.0083 18.197 18.556 18.1453 19.052 18.042C19.548 17.9387 19.9717 17.7837 20.323 17.577C20.695 17.3497 20.974 17.0603 21.16 16.709C21.346 16.337 21.439 15.903 21.439 15.407C21.439 14.849 21.315 14.384 21.067 14.012C20.8397 13.6193 20.4987 13.3197 20.044 13.113C19.61 12.9063 19.083 12.803 18.463 12.803C17.471 12.803 16.6857 13.0717 16.107 13.609C15.5283 14.1463 15.2287 14.8697 15.208 15.779L11.395 15.531C11.395 14.291 11.705 13.1853 12.325 12.214C12.945 11.2427 13.7923 10.4883 14.867 9.951C15.9623 9.393 17.2127 9.114 18.618 9.114C19.9407 9.114 21.098 9.37233 22.09 9.889C23.1027 10.385 23.888 11.0773 24.446 11.966C25.0247 12.834 25.314 13.8467 25.314 15.004C25.314 15.5207 25.2417 15.996 25.097 16.43C24.973 16.8433 24.787 17.236 24.539 17.608C24.3117 17.9593 24.0327 18.2693 23.702 18.538C23.3713 18.8067 23.0097 19.0443 22.617 19.251C23.175 19.437 23.6917 19.6953 24.167 20.026C24.663 20.336 25.0867 20.708 25.438 21.142C25.7893 21.5553 26.058 22.041 26.244 22.599C26.4507 23.1363 26.554 23.7357 26.554 24.397C26.554 25.761 26.213 26.9597 25.531 27.993C24.849 29.0263 23.9087 29.8323 22.71 30.411C21.5113 30.9897 20.106 31.279 18.494 31.279Z" fill="white"/>
<defs>
<linearGradient id="paint0_linear_1351_45" x1="19" y1="39" x2="19" y2="1" gradientUnits="userSpaceOnUse">
<stop stop-color="#1B1B1B"/>
<stop offset="1" stop-color="#282727"/>
</linearGradient>
<linearGradient id="paint1_linear_1351_45" x1="19" y1="1" x2="19" y2="39" gradientUnits="userSpaceOnUse">
<stop stop-color="white" stop-opacity="0.4"/>
<stop offset="1" stop-color="white" stop-opacity="0"/>
</linearGradient>
</defs>
</svg>
