<svg width="38" height="40" viewBox="0 0 38 40" fill="none" xmlns="http://www.w3.org/2000/svg">
<rect x="0.5" y="1.5" width="37" height="37" rx="4.5" fill="url(#paint0_linear_1351_42)" stroke="url(#paint1_linear_1351_42)"/>
<path d="M11.271 31V28.086C11.9323 27.59 12.7073 27.0217 13.596 26.381C14.4847 25.7403 15.3837 25.0377 16.293 24.273C17.223 23.5083 18.0807 22.692 18.866 21.824C19.6513 20.956 20.2817 20.0467 20.757 19.096C21.253 18.1453 21.501 17.174 21.501 16.182C21.501 15.252 21.253 14.477 20.757 13.857C20.261 13.2163 19.486 12.896 18.432 12.896C17.564 12.896 16.8717 13.113 16.355 13.547C15.859 13.981 15.4973 14.539 15.27 15.221C15.0427 15.8823 14.9083 16.5747 14.867 17.298L11.085 17.019C11.085 16.0477 11.24 15.097 11.55 14.167C11.8807 13.237 12.356 12.4 12.976 11.656C13.6167 10.8913 14.402 10.2817 15.332 9.827C16.262 9.37233 17.3367 9.145 18.556 9.145C19.8787 9.145 21.0463 9.43433 22.059 10.013C23.0923 10.5917 23.8983 11.3977 24.477 12.431C25.0557 13.4643 25.345 14.6733 25.345 16.058C25.345 17.1327 25.159 18.1763 24.787 19.189C24.4357 20.2017 23.9293 21.173 23.268 22.103C22.6067 23.033 21.8213 23.9113 20.912 24.738C20.0027 25.5647 18.99 26.3397 17.874 27.063C16.758 27.7657 15.58 28.4063 14.34 28.985L15.363 27.404H26.182V31H11.271Z" fill="white"/>
<defs>
<linearGradient id="paint0_linear_1351_42" x1="19" y1="39" x2="19" y2="1" gradientUnits="userSpaceOnUse">
<stop stop-color="#1B1B1B"/>
<stop offset="1" stop-color="#282727"/>
</linearGradient>
<linearGradient id="paint1_linear_1351_42" x1="19" y1="1" x2="19" y2="39" gradientUnits="userSpaceOnUse">
<stop stop-color="white" stop-opacity="0.4"/>
<stop offset="1" stop-color="white" stop-opacity="0"/>
</linearGradient>
</defs>
</svg>
