<svg width="38" height="40" viewBox="0 0 38 40" fill="none" xmlns="http://www.w3.org/2000/svg">
<rect x="0.5" y="1.5" width="37" height="37" rx="4.5" fill="url(#paint0_linear_1351_51)" stroke="url(#paint1_linear_1351_51)"/>
<path d="M18.587 31.31C17.223 31.31 15.9727 31.0207 14.836 30.442C13.72 29.8633 12.8003 29.078 12.077 28.086C11.3743 27.094 10.9197 25.978 10.713 24.738L14.495 24.087C14.5777 24.6657 14.774 25.2237 15.084 25.761C15.394 26.2983 15.8383 26.7427 16.417 27.094C16.9957 27.4453 17.6983 27.621 18.525 27.621C19.4343 27.621 20.168 27.4143 20.726 27.001C21.3047 26.5877 21.7283 26.0607 21.997 25.42C22.2863 24.7793 22.431 24.118 22.431 23.436C22.431 22.7747 22.2967 22.165 22.028 21.607C21.78 21.049 21.3667 20.5943 20.788 20.243C20.23 19.8917 19.5067 19.716 18.618 19.716C17.75 19.716 17.0163 19.902 16.417 20.274C15.8177 20.646 15.3423 21.1213 14.991 21.7L11.364 20.77L13.472 9.393H25.562V12.989H14.898L16.944 11.346L15.58 18.6L14.34 18.259C15.146 17.3703 15.9623 16.7917 16.789 16.523C17.6363 16.2337 18.4217 16.089 19.145 16.089C20.6123 16.089 21.8937 16.43 22.989 17.112C24.105 17.794 24.973 18.693 25.593 19.809C26.213 20.925 26.523 22.134 26.523 23.436C26.523 24.4693 26.3267 25.4613 25.934 26.412C25.5413 27.342 24.9937 28.179 24.291 28.923C23.5883 29.6463 22.7513 30.225 21.78 30.659C20.8087 31.093 19.7443 31.31 18.587 31.31Z" fill="white"/>
<defs>
<linearGradient id="paint0_linear_1351_51" x1="19" y1="39" x2="19" y2="1" gradientUnits="userSpaceOnUse">
<stop stop-color="#1B1B1B"/>
<stop offset="1" stop-color="#282727"/>
</linearGradient>
<linearGradient id="paint1_linear_1351_51" x1="19" y1="1" x2="19" y2="39" gradientUnits="userSpaceOnUse">
<stop stop-color="white" stop-opacity="0.4"/>
<stop offset="1" stop-color="white" stop-opacity="0"/>
</linearGradient>
</defs>
</svg>
