<svg width="20" height="20" viewBox="0 0 20 20" fill="none" xmlns="http://www.w3.org/2000/svg">
<g clip-path="url(#clip0_21_2)">
<path d="M9.876 2.007C12.515 2.007 12.827 2.019 13.865 2.065C14.829 2.107 15.35 2.269 15.697 2.405C16.157 2.582 16.488 2.798 16.831 3.141C17.179 3.488 17.391 3.816 17.568 4.275C17.703 4.623 17.865 5.147 17.908 6.108C17.954 7.149 17.966 7.462 17.966 10.097C17.966 12.736 17.954 13.047 17.908 14.086C17.865 15.05 17.703 15.571 17.568 15.918C17.391 16.378 17.175 16.709 16.831 17.052C16.484 17.4 16.156 17.612 15.697 17.789C15.35 17.924 14.826 18.086 13.865 18.129C12.823 18.175 12.511 18.186 9.875 18.186C7.237 18.186 6.925 18.175 5.887 18.129C4.923 18.086 4.402 17.924 4.055 17.789C3.62631 17.6313 3.23846 17.3795 2.92 17.052C2.59258 16.7341 2.34102 16.3465 2.184 15.918C2.048 15.571 1.886 15.046 1.844 14.086C1.798 13.044 1.786 12.732 1.786 10.096C1.786 7.458 1.798 7.146 1.844 6.108C1.886 5.143 2.048 4.623 2.184 4.275C2.361 3.816 2.577 3.485 2.92 3.141C3.268 2.794 3.595 2.581 4.055 2.404C4.402 2.269 4.926 2.107 5.887 2.064C6.925 2.019 7.237 2.007 9.876 2.007ZM9.876 0.229004C7.195 0.229004 6.859 0.240004 5.806 0.286004C4.756 0.333004 4.036 0.502004 3.41 0.746004C2.75036 0.993535 2.153 1.38267 1.66 1.886C1.15621 2.37883 0.766118 2.97574 0.517 3.635C0.274 4.264 0.104 4.98 0.057 6.03C0.013 7.088 0 7.423 0 10.105C0 12.785 0.012 13.121 0.058 14.175C0.104 15.224 0.274 15.945 0.517 16.57C0.764858 17.2305 1.1547 17.8286 1.659 18.322C2.207 18.869 2.759 19.209 3.406 19.46C4.036 19.703 4.753 19.872 5.802 19.919C6.855 19.965 7.191 19.977 9.872 19.977C12.553 19.977 12.889 19.965 13.942 19.919C14.992 19.872 15.712 19.703 16.338 19.459C16.986 19.209 17.538 18.869 18.085 18.322C18.633 17.774 18.973 17.222 19.223 16.574C19.466 15.945 19.636 15.228 19.683 14.178C19.729 13.125 19.74 12.789 19.74 10.108C19.74 7.428 19.729 7.092 19.682 6.038C19.636 4.989 19.466 4.268 19.223 3.643C18.9851 2.9792 18.5986 2.37856 18.093 1.887C17.6001 1.38517 17.0035 0.997119 16.345 0.750004C15.717 0.506004 15 0.337004 13.95 0.290004C12.893 0.240004 12.557 0.230004 9.876 0.230004V0.229004Z" fill="black"/>
<path d="M9.87603 5.03102C8.8724 5.03082 7.89126 5.32826 7.05669 5.88573C6.22212 6.44319 5.57162 7.23563 5.18745 8.16282C4.80329 9.09002 4.70272 10.1103 4.89847 11.0947C5.09422 12.079 5.5775 12.9832 6.28717 13.6929C6.99684 14.4026 7.90103 14.8858 8.88538 15.0816C9.86974 15.2773 10.89 15.1768 11.8172 14.7926C12.7444 14.4084 13.5369 13.7579 14.0943 12.9234C14.6518 12.0888 14.9492 11.1076 14.949 10.104C14.949 7.30402 12.677 5.03102 9.87603 5.03102ZM9.87603 13.395C9.0032 13.395 8.16612 13.0483 7.54894 12.4311C6.93176 11.8139 6.58503 10.9768 6.58503 10.104C6.58503 9.23119 6.93176 8.39411 7.54894 7.77693C8.16612 7.15975 9.0032 6.81302 9.87603 6.81302C10.7489 6.81302 11.5859 7.15975 12.2031 7.77693C12.8203 8.39411 13.167 9.23119 13.167 10.104C13.167 10.9768 12.8203 11.8139 12.2031 12.4311C11.5859 13.0483 10.7489 13.395 9.87603 13.395ZM16.334 4.83002C16.334 5.1443 16.2092 5.44571 15.9869 5.66794C15.7647 5.89017 15.4633 6.01502 15.149 6.01502C14.8347 6.01502 14.5333 5.89017 14.3111 5.66794C14.0889 5.44571 13.964 5.1443 13.964 4.83002C13.964 4.51574 14.0889 4.21433 14.3111 3.9921C14.5333 3.76987 14.8347 3.64502 15.149 3.64502C15.4633 3.64502 15.7647 3.76987 15.9869 3.9921C16.2092 4.21433 16.334 4.51574 16.334 4.83002Z" fill="black"/>
</g>
<defs>
<clipPath id="clip0_21_2">
<rect width="20" height="20" fill="white"/>
</clipPath>
</defs>
</svg>
