<svg width="26" height="24" viewBox="0 0 26 24" fill="none" xmlns="http://www.w3.org/2000/svg">
<path d="M22.313 6.0359L22.318 6.0419L22.324 6.0479C22.507 6.2309 22.687 6.6179 22.824 7.0809C22.8917 7.31327 22.9461 7.54932 22.987 7.7879L22.994 7.8279V7.8299L22.995 7.8379L23.002 7.8969L23.027 8.1249C23.047 8.3229 23.076 8.6079 23.104 8.9489C23.16 9.6349 23.215 10.5389 23.215 11.4369V13.1799C23.215 14.0799 23.16 14.9849 23.104 15.6699C23.0752 16.0204 23.0412 16.3704 23.002 16.7199L22.995 16.7799V16.7869L22.994 16.7889L22.987 16.8289C22.9458 17.0675 22.8911 17.3035 22.823 17.5359C22.687 17.9979 22.507 18.3859 22.324 18.5689L22.318 18.5749L22.312 18.5809C21.755 19.1649 21.184 19.2239 20.704 19.2739L20.558 19.2899C18.977 19.4009 16.993 19.4599 15.393 19.4909C14.5287 19.5072 13.6644 19.5179 12.8 19.5229H12.643L12.603 19.5239H12.531L12.338 19.5209C11.3546 19.5106 10.3712 19.4952 9.38799 19.4749C7.67699 19.4399 5.78799 19.3849 4.88999 19.3019C4.74199 19.2759 4.59599 19.2559 4.45199 19.2369C3.88699 19.1619 3.34999 19.0909 2.86299 18.5819L2.85299 18.5719C2.67199 18.3879 2.49299 17.9999 2.35599 17.5369C2.28443 17.2912 2.22766 17.0414 2.18599 16.7889V16.7869L2.18499 16.7789L2.17799 16.7209L2.15299 16.4919C2.13299 16.2939 2.10399 16.0089 2.07599 15.6679C2.00575 14.8404 1.96839 14.0104 1.96399 13.1799V11.4369C1.96399 10.5399 2.02099 9.6359 2.07799 8.9509C2.10741 8.5994 2.14208 8.24836 2.18199 7.8979L2.18899 7.8399L2.18999 7.8299V7.8259C2.20008 7.75818 2.21242 7.69081 2.22699 7.6239C2.25399 7.4829 2.29699 7.2889 2.35899 7.0789C2.49399 6.6169 2.67399 6.2309 2.85599 6.0479L2.86199 6.0419L2.86799 6.0359C3.42499 5.4519 3.99599 5.3929 4.47599 5.3429L4.62199 5.3279C6.20199 5.2129 8.18499 5.1559 9.78399 5.1269C10.6472 5.11124 11.5106 5.10157 12.374 5.0979H12.806L13.393 5.1009C13.894 5.1049 14.595 5.1119 15.396 5.1269C16.995 5.1559 18.977 5.2129 20.558 5.3269L20.703 5.3429C21.184 5.3929 21.755 5.4529 22.313 6.0359Z" stroke="black" stroke-width="1.75"/>
<path d="M10.214 15.296V8.83203L16.427 12.075L10.214 15.296Z" fill="black"/>
</svg>
